<?xml version="1.0" encoding="UTF-8" standalone="no"?>
<svg
   enable-background="new 0 0 24 24"
   height="24px"
   viewBox="0 0 24 24"
   width="24px"
   fill="#000000"
   version="1.1"
   id="svg832"
   sodipodi:docname="add_user_02.svg"
   inkscape:version="1.1 (c4e8f9e, 2021-05-24)"
   xmlns:inkscape="http://www.inkscape.org/namespaces/inkscape"
   xmlns:sodipodi="http://sodipodi.sourceforge.net/DTD/sodipodi-0.dtd"
   xmlns="http://www.w3.org/2000/svg"
   xmlns:svg="http://www.w3.org/2000/svg">
  <defs
     id="defs836" />
  <sodipodi:namedview
     id="namedview834"
     pagecolor="#ffffff"
     bordercolor="#666666"
     borderopacity="1.0"
     inkscape:pageshadow="2"
     inkscape:pageopacity="0.0"
     inkscape:pagecheckerboard="0"
     showgrid="false"
     inkscape:zoom="23.75"
     inkscape:cx="11.978947"
     inkscape:cy="12"
     inkscape:window-width="1440"
     inkscape:window-height="792"
     inkscape:window-x="0"
     inkscape:window-y="25"
     inkscape:window-maximized="0"
     inkscape:current-layer="g830" />
  <g
     id="g826">
    <rect
       fill="none"
       height="24"
       width="24"
       id="rect824" />
  </g>
  <g
     id="g830">
    <path
       d="M20,9V6h-2v3h-3v2h3v3h2v-3h3V9H20z M9,12c2.21,0,4-1.79,4-4c0-2.21-1.79-4-4-4S5,5.79,5,8C5,10.21,6.79,12,9,12z M9,6 c1.1,0,2,0.9,2,2c0,1.1-0.9,2-2,2S7,9.1,7,8C7,6.9,7.9,6,9,6z M15.39,14.56C13.71,13.7,11.53,13,9,13c-2.53,0-4.71,0.7-6.39,1.56 C1.61,15.07,1,16.1,1,17.22V20h16v-2.78C17,16.1,16.39,15.07,15.39,14.56z M15,18H3v-0.78c0-0.38,0.2-0.72,0.52-0.88 C4.71,15.73,6.63,15,9,15c2.37,0,4.29,0.73,5.48,1.34C14.8,16.5,15,16.84,15,17.22V18z"
       id="path828"
       style="fill:#1e90ff;fill-opacity:1" />
  </g>
</svg>
