<?xml version="1.0" encoding="UTF-8" standalone="no"?>
<svg
   enable-background="new 0 0 24 24"
   height="24px"
   viewBox="0 0 24 24"
   width="24px"
   fill="#000000"
   version="1.1"
   id="svg828"
   sodipodi:docname="atelier_01.svg"
   inkscape:version="1.1 (c4e8f9e, 2021-05-24)"
   xmlns:inkscape="http://www.inkscape.org/namespaces/inkscape"
   xmlns:sodipodi="http://sodipodi.sourceforge.net/DTD/sodipodi-0.dtd"
   xmlns="http://www.w3.org/2000/svg"
   xmlns:svg="http://www.w3.org/2000/svg">
  <defs
     id="defs832" />
  <sodipodi:namedview
     id="namedview830"
     pagecolor="#ffffff"
     bordercolor="#666666"
     borderopacity="1.0"
     inkscape:pageshadow="2"
     inkscape:pageopacity="0.0"
     inkscape:pagecheckerboard="0"
     showgrid="false"
     inkscape:zoom="23.75"
     inkscape:cx="11.978947"
     inkscape:cy="12"
     inkscape:window-width="1440"
     inkscape:window-height="792"
     inkscape:window-x="0"
     inkscape:window-y="25"
     inkscape:window-maximized="0"
     inkscape:current-layer="svg828" />
  <rect
     fill="none"
     height="24"
     width="24"
     id="rect824" />
  <path
     d="M10,1c0,1.66-1.34,3-3,3C6.45,4,6,4.45,6,5H4c0-1.66,1.34-3,3-3c0.55,0,1-0.45,1-1H10z M12,3L6,7.58V6H4v3.11L1,11.4 l1.21,1.59L4,11.62V21h16v-9.38l1.79,1.36L23,11.4L12,3z M13.94,7h-3.89L12,5.52L13.94,7z M7.44,9h9.12L18,10.1V11H6v-0.9L7.44,9z M18,13v2H6v-2H18z M6,19v-2h12v2H6z"
     id="path826"
     style="fill:#808080" />
</svg>
