<?xml version="1.0" encoding="UTF-8" standalone="no"?>
<svg
   enable-background="new 0 0 24 24"
   height="24px"
   viewBox="0 0 24 24"
   width="24px"
   fill="#000000"
   version="1.1"
   id="svg838"
   sodipodi:docname="campaign_01.svg"
   inkscape:version="1.1 (c4e8f9e, 2021-05-24)"
   xmlns:inkscape="http://www.inkscape.org/namespaces/inkscape"
   xmlns:sodipodi="http://sodipodi.sourceforge.net/DTD/sodipodi-0.dtd"
   xmlns="http://www.w3.org/2000/svg"
   xmlns:svg="http://www.w3.org/2000/svg">
  <defs
     id="defs842" />
  <sodipodi:namedview
     id="namedview840"
     pagecolor="#ffffff"
     bordercolor="#666666"
     borderopacity="1.0"
     inkscape:pageshadow="2"
     inkscape:pageopacity="0.0"
     inkscape:pagecheckerboard="0"
     showgrid="false"
     inkscape:zoom="23.75"
     inkscape:cx="11.978947"
     inkscape:cy="12"
     inkscape:window-width="1440"
     inkscape:window-height="792"
     inkscape:window-x="0"
     inkscape:window-y="25"
     inkscape:window-maximized="0"
     inkscape:current-layer="svg838" />
  <g
     id="g826">
    <rect
       fill="none"
       height="24"
       width="24"
       id="rect824" />
  </g>
  <path
     d="M18,11c0,0.67,0,1.33,0,2c1.2,0,2.76,0,4,0c0-0.67,0-1.33,0-2C20.76,11,19.2,11,18,11z"
     id="path828"
     style="fill:#808080" />
  <path
     d="M16,17.61c0.96,0.71,2.21,1.65,3.2,2.39c0.4-0.53,0.8-1.07,1.2-1.6c-0.99-0.74-2.24-1.68-3.2-2.4 C16.8,16.54,16.4,17.08,16,17.61z"
     id="path830"
     style="fill:#808080" />
  <path
     d="M20.4,5.6C20,5.07,19.6,4.53,19.2,4c-0.99,0.74-2.24,1.68-3.2,2.4c0.4,0.53,0.8,1.07,1.2,1.6 C18.16,7.28,19.41,6.35,20.4,5.6z"
     id="path832"
     style="fill:#808080" />
  <path
     d="M4,9c-1.1,0-2,0.9-2,2v2c0,1.1,0.9,2,2,2h1v4h2v-4h1l5,3V6L8,9H4z M9.03,10.71L11,9.53v4.94l-1.97-1.18L8.55,13H8H4v-2h4 h0.55L9.03,10.71z"
     id="path834"
     style="fill:#808080" />
  <path
     d="M15.5,12c0-1.33-0.58-2.53-1.5-3.35v6.69C14.92,14.53,15.5,13.33,15.5,12z"
     id="path836"
     style="fill:#808080" />
</svg>
