<?xml version="1.0" encoding="UTF-8" standalone="no"?>
<svg
   enable-background="new 0 0 24 24"
   height="24px"
   viewBox="0 0 24 24"
   width="24px"
   fill="#000000"
   version="1.1"
   id="svg830"
   sodipodi:docname="follower_04.svg"
   inkscape:version="1.1 (c4e8f9e, 2021-05-24)"
   xmlns:inkscape="http://www.inkscape.org/namespaces/inkscape"
   xmlns:sodipodi="http://sodipodi.sourceforge.net/DTD/sodipodi-0.dtd"
   xmlns="http://www.w3.org/2000/svg"
   xmlns:svg="http://www.w3.org/2000/svg">
  <defs
     id="defs834" />
  <sodipodi:namedview
     id="namedview832"
     pagecolor="#ffffff"
     bordercolor="#666666"
     borderopacity="1.0"
     inkscape:pageshadow="2"
     inkscape:pageopacity="0.0"
     inkscape:pagecheckerboard="0"
     showgrid="false"
     inkscape:zoom="23.75"
     inkscape:cx="14"
     inkscape:cy="14.357895"
     inkscape:window-width="1440"
     inkscape:window-height="792"
     inkscape:window-x="0"
     inkscape:window-y="25"
     inkscape:window-maximized="0"
     inkscape:current-layer="g828" />
  <rect
     fill="none"
     height="24"
     width="24"
     id="rect824" />
  <g
     id="g828">
    <path
       d="M 4,13 C 5.1,13 6,12.1 6,11 6,9.9 5.1,9 4,9 2.9,9 2,9.9 2,11 c 0,1.1 0.9,2 2,2 z m 1.13,1.1 C 4.76,14.04 4.39,14 4,14 3.01,14 2.07,14.21 1.22,14.58 0.48,14.9 0.21228887,15.722477 0,16.43 c -0.15039948,0.501256 -0.37005255,1.199947 0,1.57 1.0606602,1.06066 3.4393398,1.06066 4.5,0 0.3794806,-0.379481 0,-1.61 0,-1.61 0,-0.83 0.23,-1.61 0.63,-2.29 z M 20,13 c 1.1,0 2,-0.9 2,-2 0,-1.1 -0.9,-2 -2,-2 -1.1,0 -2,0.9 -2,2 0,1.1 0.9,2 2,2 z m 4,3.43 C 23.787711,15.722477 23.52,14.9 22.78,14.58 21.93,14.21 20.99,14 20,14 c -0.39,0 -0.76,0.04 -1.13,0.1 0.4,0.68 0.63,1.46 0.63,2.29 0,0 -0.379481,1.230519 0,1.61 1.06066,1.06066 3.43934,1.06066 4.5,0 0.370053,-0.370053 0.150399,-1.068744 0,-1.57 z m -7.76,-2.78 c -1.17,-0.52 -2.61,-0.9 -4.24,-0.9 -1.63,0 -3.07,0.39 -4.24,0.9 C 6.68,14.13 6.3057067,15.348415 6,16.39 5.8488628,16.904945 5.6205194,17.620519 6,18 c 2.8284271,2.828427 9.171573,2.828427 12,0 0.379481,-0.379481 0.151137,-1.095055 0,-1.61 -0.305707,-1.041585 -0.68,-2.26 -1.76,-2.74 z M 8.07,16 c 0.09,-0.23 0.13,-0.39 0.91,-0.69 0.97,-0.38 1.99,-0.56 3.02,-0.56 1.03,0 2.05,0.18 3.02,0.56 0.77,0.3 0.81,0.46 0.91,0.69 z M 12,8 c 0.55,0 1,0.45 1,1 0,0.55 -0.45,1 -1,1 -0.55,0 -1,-0.45 -1,-1 0,-0.55 0.45,-1 1,-1 m 0,-2 c -1.66,0 -3,1.34 -3,3 0,1.66 1.34,3 3,3 1.66,0 3,-1.34 3,-3 0,-1.66 -1.34,-3 -3,-3 z"
       id="path826"
       style="fill:#808080"
       sodipodi:nodetypes="ssssscscassscsssssacscsssasscassasccsccccssscsssss" />
  </g>
</svg>
