<?xml version="1.0" encoding="UTF-8" standalone="no"?>
<svg
   enable-background="new 0 0 24 24"
   height="24px"
   viewBox="0 0 24 24"
   width="24px"
   fill="#000000"
   version="1.1"
   id="svg836"
   sodipodi:docname="manufacturing_03.svg"
   inkscape:version="1.1 (c4e8f9e, 2021-05-24)"
   xmlns:inkscape="http://www.inkscape.org/namespaces/inkscape"
   xmlns:sodipodi="http://sodipodi.sourceforge.net/DTD/sodipodi-0.dtd"
   xmlns="http://www.w3.org/2000/svg"
   xmlns:svg="http://www.w3.org/2000/svg">
  <defs
     id="defs840" />
  <sodipodi:namedview
     id="namedview838"
     pagecolor="#ffffff"
     bordercolor="#666666"
     borderopacity="1.0"
     inkscape:pageshadow="2"
     inkscape:pageopacity="0.0"
     inkscape:pagecheckerboard="0"
     showgrid="false"
     inkscape:zoom="23.75"
     inkscape:cx="11.978947"
     inkscape:cy="12"
     inkscape:window-width="1440"
     inkscape:window-height="792"
     inkscape:window-x="0"
     inkscape:window-y="25"
     inkscape:window-maximized="0"
     inkscape:current-layer="g832" />
  <g
     id="g826">
    <rect
       fill="none"
       height="24"
       width="24"
       x="0"
       id="rect824" />
  </g>
  <g
     id="g834">
    <g
       id="g832">
      <polygon
         points="20,7 20.94,4.94 23,4 20.94,3.06 20,1 19.06,3.06 17,4 19.06,4.94"
         id="polygon828"
         style="fill:#808080" />
      <path
         d="M17.71,9.12l-2.83-2.83C14.68,6.1,14.43,6,14.17,6c-0.26,0-0.51,0.1-0.71,0.29L2.29,17.46c-0.39,0.39-0.39,1.02,0,1.41 l2.83,2.83C5.32,21.9,5.57,22,5.83,22s0.51-0.1,0.71-0.29l11.17-11.17C18.1,10.15,18.1,9.51,17.71,9.12z M14.17,8.42l1.41,1.41 L14.41,11L13,9.59L14.17,8.42z M5.83,19.59l-1.41-1.41L11.59,11L13,12.41L5.83,19.59z"
         id="path830"
         style="fill:#808080" />
    </g>
  </g>
</svg>
