<?xml version="1.0" encoding="UTF-8" standalone="no"?>
<svg
   enable-background="new 0 0 24 24"
   height="24px"
   viewBox="0 0 24 24"
   width="24px"
   fill="#000000"
   version="1.1"
   id="svg840"
   sodipodi:docname="misc_01.svg"
   inkscape:version="1.1 (c4e8f9e, 2021-05-24)"
   xmlns:inkscape="http://www.inkscape.org/namespaces/inkscape"
   xmlns:sodipodi="http://sodipodi.sourceforge.net/DTD/sodipodi-0.dtd"
   xmlns="http://www.w3.org/2000/svg"
   xmlns:svg="http://www.w3.org/2000/svg">
  <defs
     id="defs844" />
  <sodipodi:namedview
     id="namedview842"
     pagecolor="#ffffff"
     bordercolor="#666666"
     borderopacity="1.0"
     inkscape:pageshadow="2"
     inkscape:pageopacity="0.0"
     inkscape:pagecheckerboard="0"
     showgrid="false"
     inkscape:zoom="23.75"
     inkscape:cx="11.978947"
     inkscape:cy="12"
     inkscape:window-width="1440"
     inkscape:window-height="792"
     inkscape:window-x="0"
     inkscape:window-y="25"
     inkscape:window-maximized="0"
     inkscape:current-layer="g836" />
  <g
     id="g826">
    <rect
       fill="none"
       height="24"
       width="24"
       id="rect824" />
  </g>
  <g
     id="g838">
    <g
       id="g836">
      <path
         d="M12,2C6.48,2,2,6.48,2,12c0,5.52,4.48,10,10,10s10-4.48,10-10C22,6.48,17.52,2,12,2z M12,20c-4.42,0-8-3.58-8-8 c0-4.42,3.58-8,8-8s8,3.58,8,8C20,16.42,16.42,20,12,20z"
         id="path828"
         style="fill:#808080" />
      <ellipse
         cx="7"
         cy="12"
         id="circle830"
         rx="1.5004724"
         ry="1.5"
         style="fill:#808080" />
      <circle
         cx="12"
         cy="12"
         r="1.5"
         id="circle832"
         style="fill:#808080" />
      <circle
         cx="17"
         cy="12"
         r="1.5"
         id="circle834"
         style="fill:#808080" />
    </g>
  </g>
</svg>
