<?xml version="1.0" encoding="UTF-8" standalone="no"?>
<svg
   height="24px"
   viewBox="0 0 24 24"
   width="24px"
   fill="#000000"
   version="1.1"
   id="svg836"
   sodipodi:docname="palette_01.svg"
   inkscape:version="1.1 (c4e8f9e, 2021-05-24)"
   xmlns:inkscape="http://www.inkscape.org/namespaces/inkscape"
   xmlns:sodipodi="http://sodipodi.sourceforge.net/DTD/sodipodi-0.dtd"
   xmlns="http://www.w3.org/2000/svg"
   xmlns:svg="http://www.w3.org/2000/svg">
  <defs
     id="defs840" />
  <sodipodi:namedview
     id="namedview838"
     pagecolor="#ffffff"
     bordercolor="#666666"
     borderopacity="1.0"
     inkscape:pageshadow="2"
     inkscape:pageopacity="0.0"
     inkscape:pagecheckerboard="0"
     showgrid="false"
     inkscape:zoom="23.75"
     inkscape:cx="11.978947"
     inkscape:cy="12"
     inkscape:window-width="1440"
     inkscape:window-height="792"
     inkscape:window-x="0"
     inkscape:window-y="25"
     inkscape:window-maximized="0"
     inkscape:current-layer="svg836" />
  <path
     d="M0 0h24v24H0z"
     fill="none"
     id="path824" />
  <path
     d="M12 22C6.49 22 2 17.51 2 12S6.49 2 12 2s10 4.04 10 9c0 3.31-2.69 6-6 6h-1.77c-.28 0-.5.22-.5.5 0 .12.05.23.13.33.41.47.64 1.06.64 1.67 0 1.38-1.12 2.5-2.5 2.5zm0-18c-4.41 0-8 3.59-8 8s3.59 8 8 8c.28 0 .5-.22.5-.5 0-.16-.08-.28-.14-.35-.41-.46-.63-1.05-.63-1.65 0-1.38 1.12-2.5 2.5-2.5H16c2.21 0 4-1.79 4-4 0-3.86-3.59-7-8-7z"
     id="path826"
     style="fill:#808080" />
  <circle
     cx="6.5"
     cy="11.5"
     r="1.5"
     id="circle828"
     style="fill:#808080" />
  <circle
     cx="9.5"
     cy="7.5"
     r="1.5"
     id="circle830"
     style="fill:#808080" />
  <circle
     cx="14.5"
     cy="7.5"
     r="1.5"
     id="circle832"
     style="fill:#808080" />
  <circle
     cx="17.5"
     cy="11.5"
     r="1.5"
     id="circle834"
     style="fill:#808080" />
</svg>
