<?xml version="1.0" encoding="UTF-8" standalone="no"?>
<svg
   enable-background="new 0 0 24 24"
   height="24px"
   viewBox="0 0 24 24"
   width="24px"
   fill="#000000"
   version="1.1"
   id="svg838"
   sodipodi:docname="remove_user_02.svg"
   inkscape:version="1.1 (c4e8f9e, 2021-05-24)"
   xmlns:inkscape="http://www.inkscape.org/namespaces/inkscape"
   xmlns:sodipodi="http://sodipodi.sourceforge.net/DTD/sodipodi-0.dtd"
   xmlns="http://www.w3.org/2000/svg"
   xmlns:svg="http://www.w3.org/2000/svg">
  <defs
     id="defs842" />
  <sodipodi:namedview
     id="namedview840"
     pagecolor="#ffffff"
     bordercolor="#666666"
     borderopacity="1.0"
     inkscape:pageshadow="2"
     inkscape:pageopacity="0.0"
     inkscape:pagecheckerboard="0"
     showgrid="false"
     inkscape:zoom="23.75"
     inkscape:cx="11.978947"
     inkscape:cy="12"
     inkscape:window-width="1440"
     inkscape:window-height="792"
     inkscape:window-x="0"
     inkscape:window-y="25"
     inkscape:window-maximized="0"
     inkscape:current-layer="g834" />
  <g
     id="g826">
    <rect
       fill="none"
       height="24"
       width="24"
       id="rect824" />
  </g>
  <g
     id="g836">
    <g
       id="g834">
      <path
         d="M14,8c0-2.21-1.79-4-4-4C7.79,4,6,5.79,6,8c0,2.21,1.79,4,4,4C12.21,12,14,10.21,14,8z M12,8c0,1.1-0.9,2-2,2 c-1.1,0-2-0.9-2-2s0.9-2,2-2C11.1,6,12,6.9,12,8z"
         id="path828"
         style="fill:#ff5555" />
      <path
         d="M2,18v2h16v-2c0-2.66-5.33-4-8-4C7.33,14,2,15.34,2,18z M4,18c0.2-0.71,3.3-2,6-2c2.69,0,5.77,1.28,6,2H4z"
         id="path830"
         style="fill:#ff5555" />
      <rect
         height="2"
         width="6"
         x="17"
         y="10"
         id="rect832"
         style="fill:#ff5555" />
    </g>
  </g>
</svg>
