<?xml version="1.0" encoding="UTF-8" standalone="no"?>
<svg
   enable-background="new 0 0 24 24"
   height="24px"
   viewBox="0 0 24 24"
   width="24px"
   fill="#000000"
   version="1.1"
   id="svg832"
   sodipodi:docname="remove_02.svg"
   inkscape:version="1.1 (c4e8f9e, 2021-05-24)"
   xmlns:inkscape="http://www.inkscape.org/namespaces/inkscape"
   xmlns:sodipodi="http://sodipodi.sourceforge.net/DTD/sodipodi-0.dtd"
   xmlns="http://www.w3.org/2000/svg"
   xmlns:svg="http://www.w3.org/2000/svg">
  <defs
     id="defs836" />
  <sodipodi:namedview
     id="namedview834"
     pagecolor="#ffffff"
     bordercolor="#666666"
     borderopacity="1.0"
     inkscape:pageshadow="2"
     inkscape:pageopacity="0.0"
     inkscape:pagecheckerboard="0"
     showgrid="false"
     inkscape:zoom="23.75"
     inkscape:cx="11.978947"
     inkscape:cy="12"
     inkscape:window-width="1440"
     inkscape:window-height="792"
     inkscape:window-x="0"
     inkscape:window-y="25"
     inkscape:window-maximized="0"
     inkscape:current-layer="g830" />
  <g
     id="g826">
    <rect
       fill="none"
       height="24"
       width="24"
       id="rect824" />
  </g>
  <g
     id="g830">
    <path
       d="M16.5,3c-0.96,0-1.9,0.25-2.73,0.69L12,9h3l-3,10l1-9h-3l1.54-5.39C10.47,3.61,9.01,3,7.5,3C4.42,3,2,5.42,2,8.5 c0,4.13,4.16,7.18,10,12.5c5.47-4.94,10-8.26,10-12.5C22,5.42,19.58,3,16.5,3z M10.24,16.73C6.45,13.34,4,11,4,8.5 C4,6.54,5.54,5,7.5,5c0.59,0,1.19,0.15,1.73,0.42L7.35,12h3.42L10.24,16.73z M15.13,15.53L17.69,7h-2.91l0.61-1.82 C15.75,5.06,16.13,5,16.5,5C18.46,5,20,6.54,20,8.5C20,10.71,17.98,12.93,15.13,15.53z"
       id="path828"
       style="fill:#808080" />
  </g>
</svg>
