<?xml version="1.0" encoding="UTF-8" standalone="no"?>
<svg
   enable-background="new 0 0 24 24"
   height="24px"
   viewBox="0 0 24 24"
   width="24px"
   fill="#000000"
   version="1.1"
   id="svg838"
   sodipodi:docname="setting_01.svg"
   inkscape:version="1.1 (c4e8f9e, 2021-05-24)"
   xmlns:inkscape="http://www.inkscape.org/namespaces/inkscape"
   xmlns:sodipodi="http://sodipodi.sourceforge.net/DTD/sodipodi-0.dtd"
   xmlns="http://www.w3.org/2000/svg"
   xmlns:svg="http://www.w3.org/2000/svg">
  <defs
     id="defs842" />
  <sodipodi:namedview
     id="namedview840"
     pagecolor="#ffffff"
     bordercolor="#666666"
     borderopacity="1.0"
     inkscape:pageshadow="2"
     inkscape:pageopacity="0.0"
     inkscape:pagecheckerboard="0"
     showgrid="false"
     inkscape:zoom="23.75"
     inkscape:cx="11.978947"
     inkscape:cy="12"
     inkscape:window-width="1440"
     inkscape:window-height="792"
     inkscape:window-x="0"
     inkscape:window-y="25"
     inkscape:window-maximized="0"
     inkscape:current-layer="g834" />
  <g
     id="g826">
    <path
       d="M0,0h24v24H0V0z"
       fill="none"
       id="path824" />
  </g>
  <g
     id="g836">
    <g
       id="g834">
      <path
         d="M4,18v-0.65c0-0.34,0.16-0.66,0.41-0.81C6.1,15.53,8.03,15,10,15c0.03,0,0.05,0,0.08,0.01c0.1-0.7,0.3-1.37,0.59-1.98 C10.45,13.01,10.23,13,10,13c-2.42,0-4.68,0.67-6.61,1.82C2.51,15.34,2,16.32,2,17.35V20h9.26c-0.42-0.6-0.75-1.28-0.97-2H4z"
         id="path828"
         style="fill:#808080" />
      <path
         d="M10,12c2.21,0,4-1.79,4-4s-1.79-4-4-4C7.79,4,6,5.79,6,8S7.79,12,10,12z M10,6c1.1,0,2,0.9,2,2s-0.9,2-2,2 c-1.1,0-2-0.9-2-2S8.9,6,10,6z"
         id="path830"
         style="fill:#808080" />
      <path
         d="M20.75,16c0-0.22-0.03-0.42-0.06-0.63l1.14-1.01l-1-1.73l-1.45,0.49c-0.32-0.27-0.68-0.48-1.08-0.63L18,11h-2l-0.3,1.49 c-0.4,0.15-0.76,0.36-1.08,0.63l-1.45-0.49l-1,1.73l1.14,1.01c-0.03,0.21-0.06,0.41-0.06,0.63s0.03,0.42,0.06,0.63l-1.14,1.01 l1,1.73l1.45-0.49c0.32,0.27,0.68,0.48,1.08,0.63L16,21h2l0.3-1.49c0.4-0.15,0.76-0.36,1.08-0.63l1.45,0.49l1-1.73l-1.14-1.01 C20.72,16.42,20.75,16.22,20.75,16z M17,18c-1.1,0-2-0.9-2-2s0.9-2,2-2s2,0.9,2,2S18.1,18,17,18z"
         id="path832"
         style="fill:#808080" />
    </g>
  </g>
</svg>
