<?xml version="1.0" encoding="UTF-8" standalone="no"?>
<svg
   enable-background="new 0 0 24 24"
   height="24px"
   viewBox="0 0 24 24"
   width="24px"
   fill="#000000"
   version="1.1"
   id="svg828"
   sodipodi:docname="tips_01.svg"
   inkscape:version="1.1 (c4e8f9e, 2021-05-24)"
   xmlns:inkscape="http://www.inkscape.org/namespaces/inkscape"
   xmlns:sodipodi="http://sodipodi.sourceforge.net/DTD/sodipodi-0.dtd"
   xmlns="http://www.w3.org/2000/svg"
   xmlns:svg="http://www.w3.org/2000/svg">
  <defs
     id="defs832" />
  <sodipodi:namedview
     id="namedview830"
     pagecolor="#ffffff"
     bordercolor="#666666"
     borderopacity="1.0"
     inkscape:pageshadow="2"
     inkscape:pageopacity="0.0"
     inkscape:pagecheckerboard="0"
     showgrid="false"
     inkscape:zoom="23.75"
     inkscape:cx="11.978947"
     inkscape:cy="12"
     inkscape:window-width="1440"
     inkscape:window-height="792"
     inkscape:window-x="0"
     inkscape:window-y="25"
     inkscape:window-maximized="0"
     inkscape:current-layer="svg828" />
  <rect
     fill="none"
     height="24"
     width="24"
     y="0"
     id="rect824" />
  <path
     d="M7,20h4c0,1.1-0.9,2-2,2S7,21.1,7,20z M5,19h8v-2H5V19z M16.5,9.5c0,3.82-2.66,5.86-3.77,6.5H5.27 C4.16,15.36,1.5,13.32,1.5,9.5C1.5,5.36,4.86,2,9,2S16.5,5.36,16.5,9.5z M14.5,9.5C14.5,6.47,12.03,4,9,4S3.5,6.47,3.5,9.5 c0,2.47,1.49,3.89,2.35,4.5h6.3C13.01,13.39,14.5,11.97,14.5,9.5z M21.37,7.37L20,8l1.37,0.63L22,10l0.63-1.37L24,8l-1.37-0.63L22,6 L21.37,7.37z M19,6l0.94-2.06L22,3l-2.06-0.94L19,0l-0.94,2.06L16,3l2.06,0.94L19,6z"
     id="path826"
     style="fill:#808080" />
</svg>
