<?xml version="1.0" encoding="UTF-8" standalone="no"?>
<svg
   enable-background="new 0 0 24 24"
   height="24px"
   viewBox="0 0 24 24"
   width="24px"
   fill="#000000"
   version="1.1"
   id="svg834"
   sodipodi:docname="workspace_02.svg"
   inkscape:version="1.1 (c4e8f9e, 2021-05-24)"
   xmlns:inkscape="http://www.inkscape.org/namespaces/inkscape"
   xmlns:sodipodi="http://sodipodi.sourceforge.net/DTD/sodipodi-0.dtd"
   xmlns="http://www.w3.org/2000/svg"
   xmlns:svg="http://www.w3.org/2000/svg">
  <defs
     id="defs838" />
  <sodipodi:namedview
     id="namedview836"
     pagecolor="#ffffff"
     bordercolor="#666666"
     borderopacity="1.0"
     inkscape:pageshadow="2"
     inkscape:pageopacity="0.0"
     inkscape:pagecheckerboard="0"
     showgrid="false"
     inkscape:zoom="23.75"
     inkscape:cx="11.978947"
     inkscape:cy="12"
     inkscape:window-width="1440"
     inkscape:window-height="792"
     inkscape:window-x="0"
     inkscape:window-y="25"
     inkscape:window-maximized="0"
     inkscape:current-layer="g830" />
  <g
     id="g826">
    <rect
       fill="none"
       height="24"
       width="24"
       id="rect824" />
  </g>
  <g
     id="g832">
    <g
       id="g830">
      <path
         d="M6,15c1.1,0,2,0.9,2,2s-0.9,2-2,2s-2-0.9-2-2S4.9,15,6,15 M6,13c-2.2,0-4,1.8-4,4s1.8,4,4,4s4-1.8,4-4S8.2,13,6,13z M12,5 c1.1,0,2,0.9,2,2s-0.9,2-2,2s-2-0.9-2-2S10.9,5,12,5 M12,3C9.8,3,8,4.8,8,7s1.8,4,4,4s4-1.8,4-4S14.2,3,12,3z M18,15 c1.1,0,2,0.9,2,2s-0.9,2-2,2s-2-0.9-2-2S16.9,15,18,15 M18,13c-2.2,0-4,1.8-4,4s1.8,4,4,4s4-1.8,4-4S20.2,13,18,13z"
         id="path828"
         style="fill:#808080" />
    </g>
  </g>
</svg>
