<?xml version="1.0" encoding="UTF-8" standalone="no"?>
<svg
   enable-background="new 0 0 24 24"
   height="24px"
   viewBox="0 0 24 24"
   width="24px"
   fill="#000000"
   version="1.1"
   id="svg828"
   sodipodi:docname="workspace_01.svg"
   inkscape:version="1.1 (c4e8f9e, 2021-05-24)"
   xmlns:inkscape="http://www.inkscape.org/namespaces/inkscape"
   xmlns:sodipodi="http://sodipodi.sourceforge.net/DTD/sodipodi-0.dtd"
   xmlns="http://www.w3.org/2000/svg"
   xmlns:svg="http://www.w3.org/2000/svg">
  <defs
     id="defs832" />
  <sodipodi:namedview
     id="namedview830"
     pagecolor="#ffffff"
     bordercolor="#666666"
     borderopacity="1.0"
     inkscape:pageshadow="2"
     inkscape:pageopacity="0.0"
     inkscape:pagecheckerboard="0"
     showgrid="false"
     inkscape:zoom="23.75"
     inkscape:cx="11.978947"
     inkscape:cy="12"
     inkscape:window-width="1440"
     inkscape:window-height="792"
     inkscape:window-x="0"
     inkscape:window-y="25"
     inkscape:window-maximized="0"
     inkscape:current-layer="svg828" />
  <rect
     fill="none"
     height="24"
     width="24"
     id="rect824" />
  <path
     d="M12,3L1,11.4l1.21,1.59L4,11.62V21h16v-9.38l1.79,1.36L23,11.4L12,3z M18,19H6v-8.9l6-4.58l6,4.58V19z M9,14 c0,0.55-0.45,1-1,1s-1-0.45-1-1c0-0.55,0.45-1,1-1S9,13.45,9,14z M12,13c0.55,0,1,0.45,1,1c0,0.55-0.45,1-1,1s-1-0.45-1-1 C11,13.45,11.45,13,12,13z M15,14c0-0.55,0.45-1,1-1s1,0.45,1,1c0,0.55-0.45,1-1,1S15,14.55,15,14z"
     id="path826"
     style="fill:#808080" />
</svg>
